<svg width="123" height="61" viewBox="0 0 123 61" fill="none" xmlns="http://www.w3.org/2000/svg">
<g filter="url(#filter0_d_64_281)">
<rect x="10" y="6" width="103" height="41" rx="20.5" fill="#45B035"/>
</g>
<path d="M46.224 23.848C46.16 23.9547 46.096 24.008 46.032 24.008C45.9253 24.008 45.808 23.88 45.68 23.624C45.5093 23.368 45.296 22.9947 45.04 22.504C44.8053 22.0133 44.5707 21.512 44.336 21C44.1227 20.4667 43.9307 19.9867 43.76 19.56C43.6107 19.1333 43.536 18.856 43.536 18.728C43.536 18.6213 43.5893 18.568 43.696 18.568C43.7813 18.568 43.8453 18.6107 43.888 18.696C43.952 18.7813 44.048 19.0053 44.176 19.368C44.2827 19.6453 44.4107 19.9547 44.56 20.296C44.7093 20.6373 44.8587 20.9893 45.008 21.352C45.1787 21.6933 45.3387 22.024 45.488 22.344C45.6587 22.664 45.7973 22.92 45.904 23.112C46.16 23.5387 46.2667 23.784 46.224 23.848ZM52.624 15.752C52.7307 15.9013 52.8053 16.04 52.848 16.168C52.8907 16.2747 52.9013 16.424 52.88 16.616C52.88 16.808 52.848 17.0533 52.784 17.352C52.7413 17.6293 52.656 18.024 52.528 18.536C52.2507 19.7947 52.016 20.9253 51.824 21.928C51.632 22.9093 51.472 23.8693 51.344 24.808C51.2373 25.7253 51.152 26.6747 51.088 27.656C51.024 28.616 50.9707 29.704 50.928 30.92C50.9067 31.7307 50.8747 32.392 50.832 32.904C50.8107 33.416 50.7787 33.832 50.736 34.152C50.6933 34.4507 50.6293 34.6853 50.544 34.856C50.4587 35.0267 50.352 35.1867 50.224 35.336C49.8187 35.8053 49.3173 36.04 48.72 36.04C48.1013 36.04 47.4613 35.7093 46.8 35.048C46.16 34.3867 45.552 33.608 44.976 32.712C44.4 31.816 43.888 30.92 43.44 30.024C43.0133 29.128 42.6933 28.456 42.48 28.008C42.3093 27.6027 42.1387 27.24 41.968 26.92C41.8187 26.5787 41.7227 26.3653 41.68 26.28L41.52 25.992L41.552 31.112V36.264L41.36 36.616C41.0187 37.1067 40.56 37.3733 39.984 37.416C39.7067 37.416 39.4827 37.3947 39.312 37.352C39.12 37.288 38.9173 37.1387 38.704 36.904C38.4907 36.6693 38.3413 36.4347 38.256 36.2C38.2133 36.0293 38.1707 35.464 38.128 34.504C38.0853 33.5227 38.0533 32.4027 38.032 31.144C38.032 29.864 38.032 28.5627 38.032 27.24C38.032 25.9173 38.0533 24.808 38.096 23.912C38.1173 23.3147 38.1493 22.6533 38.192 21.928C38.256 21.2027 38.32 20.5093 38.384 19.848C38.4693 19.1653 38.544 18.568 38.608 18.056C38.672 17.5227 38.736 17.16 38.8 16.968C38.9067 16.6693 39.088 16.424 39.344 16.232C39.6213 16.0187 39.9307 15.912 40.272 15.912C41.104 15.912 41.68 16.52 42 17.736C42.064 17.992 42.224 18.472 42.48 19.176C42.7573 19.8587 43.0773 20.6373 43.44 21.512C43.8027 22.3653 44.176 23.2507 44.56 24.168C44.944 25.064 45.296 25.8427 45.616 26.504C45.7653 26.8027 45.936 27.1547 46.128 27.56C46.32 27.944 46.5013 28.3173 46.672 28.68C46.864 29.0213 47.024 29.32 47.152 29.576C47.3013 29.8107 47.3867 29.9493 47.408 29.992C47.4507 30.0133 47.472 29.8533 47.472 29.512C47.472 29.32 47.4827 29.0427 47.504 28.68C47.5253 28.3173 47.5573 27.912 47.6 27.464C47.6427 27.016 47.6853 26.5467 47.728 26.056C47.7707 25.5653 47.824 25.096 47.888 24.648C48.0587 23.304 48.272 21.9813 48.528 20.68C48.8053 19.3573 49.0933 18.0347 49.392 16.712C49.4987 16.2213 49.68 15.8267 49.936 15.528C50.192 15.208 50.576 15.0267 51.088 14.984H51.344C51.6 14.984 51.8453 15.0587 52.08 15.208C52.3147 15.336 52.496 15.5173 52.624 15.752ZM55.5303 23.208C55.3169 23.336 55.0823 23.5173 54.8263 23.752C54.5703 23.9867 54.3249 24.232 54.0903 24.488C53.8556 24.744 53.6423 24.9893 53.4503 25.224C53.2796 25.4587 53.1729 25.6507 53.1303 25.8C53.0876 25.9067 53.0236 25.96 52.9383 25.96C52.8529 25.96 52.7996 25.928 52.7782 25.864C52.7142 25.6933 52.7996 25.4267 53.0343 25.064C53.2689 24.7013 53.5996 24.296 54.0263 23.848C54.4103 23.464 54.7623 23.1653 55.0823 22.952C55.4023 22.7173 55.6476 22.6 55.8183 22.6C55.9249 22.6 55.9783 22.6533 55.9783 22.76C55.9783 22.8667 55.8289 23.016 55.5303 23.208ZM63.2423 26.056C63.7969 27.0373 64.0423 28.168 63.9783 29.448C63.9569 30.2373 63.7863 31.0267 63.4663 31.816C63.1463 32.584 62.7196 33.2773 62.1863 33.896C61.6529 34.5147 61.0343 35.0267 60.3303 35.432C59.6263 35.816 58.8583 36.0293 58.0263 36.072C57.6423 36.072 57.3756 36.072 57.2263 36.072C57.0769 36.0507 56.8956 35.9973 56.6823 35.912C55.9996 35.6773 55.4023 35.2827 54.8903 34.728C54.3783 34.152 54.0049 33.5333 53.7703 32.872C53.5996 32.3813 53.4716 31.912 53.3863 31.464C53.3223 30.9947 53.3009 30.4293 53.3223 29.768C53.3649 28.744 53.5783 27.7307 53.9622 26.728C54.3676 25.704 55.0076 24.8827 55.8823 24.264C56.0743 24.1147 56.3089 23.976 56.5863 23.848C56.8849 23.72 57.3009 23.5493 57.8343 23.336C57.9196 23.3147 58.0476 23.2933 58.2183 23.272C58.3889 23.2507 58.5809 23.24 58.7943 23.24C59.7543 23.24 60.6076 23.4747 61.3542 23.944C62.1223 24.4133 62.7516 25.1173 63.2423 26.056ZM60.5223 29.064C60.5223 28.7013 60.4796 28.4133 60.3943 28.2C60.3303 27.9653 60.2023 27.7093 60.0103 27.432C59.8183 27.1333 59.6263 26.9413 59.4343 26.856C59.2636 26.7707 58.9649 26.7173 58.5383 26.696L57.8663 26.664L57.6423 26.92C57.3863 27.2187 57.1836 27.5813 57.0343 28.008C56.9063 28.4133 56.8209 28.9253 56.7783 29.544C56.7356 30.184 56.7783 30.76 56.9062 31.272C57.0343 31.784 57.2156 32.1573 57.4503 32.392C57.5569 32.4987 57.6316 32.5627 57.6743 32.584C57.7383 32.6053 57.8449 32.616 57.9943 32.616C58.0796 32.5947 58.1756 32.5733 58.2823 32.552C58.3889 32.5093 58.4849 32.4667 58.5703 32.424C59.1463 32.1253 59.6156 31.656 59.9783 31.016C60.3409 30.3547 60.5223 29.704 60.5223 29.064ZM68.3533 37C68.6519 37.0853 68.8333 37.1387 68.8973 37.16C68.9826 37.2027 69.0039 37.2773 68.9613 37.384C68.9186 37.4907 68.8226 37.544 68.6733 37.544C68.2679 37.544 67.8839 37.4373 67.5213 37.224C67.1586 37.032 66.8279 36.7973 66.5293 36.52C66.1453 36.1573 65.8466 35.784 65.6333 35.4C65.4199 35.016 65.3986 34.792 65.5693 34.728C65.6119 34.7067 65.6333 34.696 65.6333 34.696C65.7186 34.696 65.8466 34.856 66.0173 35.176C66.1453 35.4107 66.3479 35.6773 66.6253 35.976C66.9239 36.2747 67.1906 36.5093 67.4253 36.68C67.6813 36.8293 67.9906 36.936 68.3533 37ZM82.9773 24.328C83.0413 24.584 83.0946 24.936 83.1373 25.384C83.2013 25.832 83.2439 26.3013 83.2653 26.792C83.3079 27.2613 83.3186 27.7307 83.2973 28.2C83.2973 28.648 83.2759 29.0213 83.2333 29.32C83.1266 30.0453 82.9133 30.8027 82.5933 31.592C82.2946 32.36 81.8999 33.0747 81.4093 33.736C80.9399 34.376 80.3639 34.9093 79.6813 35.336C79.0199 35.7627 78.2733 35.976 77.4413 35.976C76.8653 35.976 76.3533 35.88 75.9053 35.688C75.4573 35.496 75.0093 35.176 74.5613 34.728L74.0173 34.184L73.6973 34.6C73.3986 35.0053 73.0146 35.3573 72.5453 35.656C72.0759 35.9333 71.6173 36.1253 71.1693 36.232C71.0626 36.2747 70.9346 36.296 70.7853 36.296C70.6573 36.296 70.5079 36.296 70.3373 36.296C70.2306 36.296 70.1133 36.296 69.9852 36.296C69.8786 36.296 69.7826 36.2853 69.6973 36.264C69.3986 36.2213 69.0786 36.1253 68.7373 35.976C68.3959 35.8053 68.0973 35.6027 67.8413 35.368C67.1159 34.7493 66.5399 33.8107 66.1133 32.552C65.6866 31.272 65.4733 29.8533 65.4733 28.296C65.4733 27.8053 65.5053 27.272 65.5693 26.696C65.6546 26.12 65.7613 25.544 65.8893 24.968C66.0173 24.392 66.1666 23.8373 66.3372 23.304C66.5079 22.7493 66.6893 22.2693 66.8813 21.864C67.1373 21.3093 67.4039 20.9147 67.6813 20.68C67.9586 20.4453 68.2999 20.328 68.7053 20.328C68.9826 20.328 69.1959 20.3707 69.3453 20.456C69.5159 20.52 69.6866 20.6373 69.8573 20.808C70.3693 21.3627 70.4013 21.992 69.9533 22.696C69.6973 23.1227 69.4839 23.784 69.3133 24.68C69.1639 25.5547 69.0679 26.5787 69.0253 27.752C68.9613 29.672 69.1746 31.1013 69.6653 32.04C69.8146 32.3387 69.9319 32.5413 70.0173 32.648C70.1239 32.7547 70.2519 32.808 70.4013 32.808C70.7426 32.808 71.1159 32.392 71.5213 31.56C71.9479 30.7067 72.2999 29.6613 72.5773 28.424C72.7053 27.8907 72.8119 27.5173 72.8973 27.304C73.0039 27.0693 73.1533 26.8667 73.3453 26.696C73.5586 26.5253 73.7506 26.4187 73.9213 26.376C74.0919 26.312 74.3159 26.28 74.5933 26.28C75.1693 26.344 75.6066 26.6213 75.9053 27.112L76.1293 27.464V28.904C76.1293 29.6933 76.1506 30.2587 76.1933 30.6C76.2573 30.92 76.3959 31.2827 76.6093 31.688C76.8866 32.2427 77.1639 32.52 77.4413 32.52C77.7826 32.52 78.1666 32.2427 78.5933 31.688C79.0199 31.1333 79.3506 30.504 79.5853 29.8C79.7133 29.416 79.7879 28.8827 79.8093 28.2C79.8519 27.496 79.8199 26.76 79.7133 25.992C79.6493 25.3947 79.6173 24.9787 79.6173 24.744C79.6386 24.5093 79.7026 24.2853 79.8093 24.072C80.1506 23.432 80.6519 23.112 81.3133 23.112C81.4839 23.112 81.6653 23.144 81.8573 23.208C82.0493 23.2507 82.2626 23.4 82.4973 23.656C82.7533 23.8907 82.9133 24.1147 82.9773 24.328Z" fill="white"/>
<defs>
<filter id="filter0_d_64_281" x="0" y="0" width="123" height="61" filterUnits="userSpaceOnUse" color-interpolation-filters="sRGB">
<feFlood flood-opacity="0" result="BackgroundImageFix"/>
<feColorMatrix in="SourceAlpha" type="matrix" values="0 0 0 0 0 0 0 0 0 0 0 0 0 0 0 0 0 0 127 0" result="hardAlpha"/>
<feOffset dy="4"/>
<feGaussianBlur stdDeviation="5"/>
<feComposite in2="hardAlpha" operator="out"/>
<feColorMatrix type="matrix" values="0 0 0 0 0 0 0 0 0 0 0 0 0 0 0 0 0 0 0.3 0"/>
<feBlend mode="normal" in2="BackgroundImageFix" result="effect1_dropShadow_64_281"/>
<feBlend mode="normal" in="SourceGraphic" in2="effect1_dropShadow_64_281" result="shape"/>
</filter>
</defs>
</svg>
